Coordinates
version=1
nRows=11
nColumns=46
inDegrees=yes

Units are S.I. units (second, meters, Newtons, ...)
Angles are in degrees.

endheader
time	pelvis_tilt	pelvis_list	pelvis_rotation	pelvis_tx	pelvis_ty	pelvis_tz	bb_angle	bb_tx	bb_ty	bb_tz	hip_flexion_r	hip_adduction_r	hip_rotation_r	knee_angle_r	knee_angle_r_beta	ankle_angle_r	subtalar_angle_r	mtp_angle_r	crank_angle_r	hip_flexion_l	hip_adduction_l	hip_rotation_l	knee_angle_l	knee_angle_l_beta	ankle_angle_l	subtalar_angle_l	mtp_angle_l	crank_angle_l	lumbar_extension	lumbar_bending	lumbar_rotation	arm_flex_r	arm_add_r	arm_rot_r	elbow_flex_r	pro_sup_r	wrist_flex_r	wrist_dev_r	arm_flex_l	arm_add_l	arm_rot_l	elbow_flex_l	pro_sup_l	wrist_flex_l	wrist_dev_l
      5.00000000	    -28.27102706	      6.66765922	      4.64098160	      0.43509033	      1.18248363	     -0.23649215	      0.00000000	      0.50000000	      0.00000000	      0.25000000	     32.20254532	    -10.93143734	     -8.93398316	     28.07337087	      0.48997275	     -9.23104170	      1.62590919	      0.00000000	      0.00000000	     81.45713619	     -0.61753951	      1.34949889	    107.24061554	      1.87170183	    -13.83999235	     -1.86168870	      0.00000000	      0.00000000	    -62.77214303	     -5.30161707	     -7.39964766	     43.61852601	    -17.01723799	     17.47713955	     94.87295140	     56.98522098	      0.00000000	      0.00000000	     44.96551059	    -25.17915722	     17.56252266	    100.18285985	     54.98699406	      0.00000000	      0.00000000
      5.00500000	    -28.30193779	      6.47253302	      4.97376402	      0.43542904	      1.18376602	     -0.23678572	      0.00000000	      0.50000000	      0.00000000	      0.25000000	     31.97398457	    -11.05497970	     -9.59708140	     28.72176054	      0.50128929	     -9.95796133	      1.46929477	      0.00000000	      0.00000000	     82.01627294	     -0.34899158	      1.43387067	    106.76517387	      1.86340381	    -13.52015360	     -2.14619262	      0.00000000	      0.00000000	    -62.90021217	     -5.22527893	     -7.48653493	     43.62606301	    -17.07880930	     17.44191576	     94.70888316	     56.96249734	      0.00000000	      0.00000000	     45.36060854	    -25.21181902	     17.52897857	    100.22240185	     54.98580021	      0.00000000	      0.00000000
      5.01000000	    -28.33793308	      6.31165039	      5.38822387	      0.43570083	      1.18540995	     -0.23714491	      0.00000000	      0.50000000	      0.00000000	      0.25000000	     31.87044198	    -11.25777508	    -10.22492313	     29.56455866	      0.51599889	    -10.77246630	      1.21743437	      0.00000000	      0.00000000	     82.49113170	      0.14774157	      1.60470192	    106.11352836	      1.85203045	    -13.31118061	     -2.42311204	      0.00000000	      0.00000000	    -63.11725864	     -5.07798003	     -7.62957207	     43.68079890	    -17.18671326	     17.33219529	     94.52194926	     56.92655240	      0.00000000	      0.00000000	     45.76961010	    -25.26092529	     17.47200788	    100.27184389	     54.98281947	      0.00000000	      0.00000000
      5.01500000	    -28.19460746	      6.14273661	      5.68396891	      0.43643723	      1.18723456	     -0.23742934	      0.00000000	      0.50000000	      0.00000000	      0.25000000	     31.71639693	    -11.41991107	    -10.76981326	     30.66849676	      0.53526625	    -11.50101558	      0.84767668	      0.00000000	      0.00000000	     82.61064707	      0.61689583	      1.82432191	    105.40115849	      1.83959725	    -12.90686876	     -2.72393525	      0.00000000	      0.00000000	    -63.50035237	     -4.96770699	     -7.71774483	     43.75035604	    -17.31149250	     17.19633354	     94.34067069	     56.88859073	      0.00000000	      0.00000000	     46.11388512	    -25.31003119	     17.38090866	    100.31782560	     54.97600215	      0.00000000	      0.00000000
      5.02000000	    -28.15185855	      5.98404679	      6.01276827	      0.43728154	      1.18906124	     -0.23811499	      0.00000000	      0.50000000	      0.00000000	      0.25000000	     31.75715920	    -11.64069182	    -11.23652765	     31.89622046	      0.55669407	    -12.33959660	      0.31979543	      0.00000000	      0.00000000	     82.68228480	      1.23307039	      2.07134117	    104.54259332	      1.82461246	    -12.44279677	     -3.03575979	      0.00000000	      0.00000000	    -63.84311353	     -4.83426368	     -7.86076026	     43.86629680	    -17.49855592	     16.96346334	     94.14729147	     56.84595796	      0.00000000	      0.00000000	     46.44338678	    -25.33239016	     17.25781066	    100.41234179	     54.97486920	      0.00000000	      0.00000000
      5.02500000	    -28.11559504	      5.75835499	      6.26083790	      0.43778445	      1.19077363	     -0.23872824	      0.00000000	      0.50000000	      0.00000000	      0.25000000	     32.03753907	    -11.78468073	    -11.50972785	     33.44175681	      0.58366876	    -13.25141931	     -0.17605219	      0.00000000	      0.00000000	     82.68139977	      1.69757035	      2.33356576	    103.60653646	      1.80827519	    -11.84985971	     -3.36441813	      0.00000000	      0.00000000	    -64.15296081	     -4.64271379	     -7.89588516	     44.01304775	    -17.65040542	     16.74790381	     94.04797518	     56.81648741	      0.00000000	      0.00000000	     46.85332469	    -25.50782453	     17.13967590	    100.46937678	     54.96758410	      0.00000000	      0.00000000
      5.03000000	    -28.11577627	      5.52996549	      6.56895270	      0.43807583	      1.19252704	     -0.23931356	      0.00000000	      0.50000000	      0.00000000	      0.25000000	     32.45987678	    -11.93110167	    -11.69527418	     35.13649094	      0.61324745	    -14.19135752	     -0.93821828	      0.00000000	      0.00000000	     82.59899852	      2.17022139	      2.55794459	    102.48879618	      1.78876694	    -11.29700609	     -3.72362251	      0.00000000	      0.00000000	    -64.46919163	     -4.41969663	     -7.94499742	     44.14326061	    -17.85139778	     16.49580317	     94.01876881	     56.79860397	      0.00000000	      0.00000000	     47.12822308	    -25.59390664	     17.01360485	    100.61979197	     54.97645286	      0.00000000	      0.00000000
      5.03500000	    -28.19995810	      5.37571226	      6.97649176	      0.43790509	      1.19420558	     -0.23990644	      0.00000000	      0.50000000	      0.00000000	      0.25000000	     33.15380582	    -12.20841458	    -11.75161925	     37.06759811	      0.64695163	    -15.29971917	     -1.81157866	      0.00000000	      0.00000000	     82.49958109	      2.66017011	      2.62157212	    101.20067444	      1.76628497	    -10.84557347	     -4.11848059	      0.00000000	      0.00000000	    -64.76695468	     -4.18682319	     -8.09276896	     44.23472015	    -18.09259984	     16.19825414	     94.12687572	     56.80035371	      0.00000000	      0.00000000	     47.24950968	    -25.53313322	     16.75638256	    100.93487546	     54.99533272	      0.00000000	      0.00000000
      5.04000000	    -28.31703401	      5.00916791	      7.29240447	      0.43775604	      1.19565816	     -0.24059347	      0.00000000	      0.50000000	      0.00000000	      0.25000000	     33.98351884	    -12.20064187	    -11.62756026	     39.08238772	      0.68211635	    -16.48749712	     -2.73145952	      0.00000000	      0.00000000	     82.35297745	      3.02513859	      2.88611421	     99.86785641	      1.74302291	    -10.25255461	     -4.57891252	      0.00000000	      0.00000000	    -64.98229291	     -3.80972482	     -8.03523112	     44.41021761	    -18.29566532	     15.94560743	     94.30170144	     56.81462557	      0.00000000	      0.00000000	     47.39106255	    -25.58072388	     16.57197706	    101.27328919	     55.02531892	      0.00000000	      0.00000000
      5.04500000	    -28.56685737	      4.69092213	      7.52479720	      0.43736414	      1.19672071	     -0.24121844	      0.00000000	      0.50000000	      0.00000000	      0.25000000	     35.10901365	    -12.19674902	    -11.31369419	     41.21056918	      0.71926012	    -17.89669377	     -3.86751897	      0.00000000	      0.00000000	     82.23789396	      3.30132864	      3.08729007	     98.40337360	      1.71746286	     -9.79081154	     -5.04273427	      0.00000000	      0.00000000	    -65.08981190	     -3.54335413	     -8.00189161	     44.38898759	    -18.58760245	     15.74721199	     94.74222943	     56.90436837	      0.00000000	      0.00000000	     47.36653590	    -25.72438024	     16.45708365	    101.89504974	     55.10910665	      0.00000000	      0.00000000
      5.05000000	    -28.65535936	      4.25676740	      7.85440133	      0.43703004	      1.19798847	     -0.24192923	      0.00000000	      0.50000000	      0.00000000	      0.25000000	     36.05223700	    -12.10981234	    -11.11343223	     43.34384385	      0.75649279	    -19.10849742	     -4.73502932	      0.00000000	      0.00000000	     81.85376202	      3.62245331	      3.47506454	     96.84389302	      1.69024479	     -9.16061504	     -5.26592124	      0.00000000	      0.00000000	    -65.31942148	     -3.07264411	     -7.86608236	     44.66562934	    -18.82296469	     15.55773724	     94.95861005	     56.93376496	      0.00000000	      0.00000000	     47.51703776	    -25.79510371	     16.44885934	    102.30938307	     55.16935692	      0.00000000	      0.00000000
